<svg width="150" height="150" viewBox="0 0 150 150" fill="none" xmlns="http://www.w3.org/2000/svg">
<path d="M137.5 105.75V124.5C137.507 126.241 137.15 127.964 136.453 129.559C135.756 131.153 134.733 132.585 133.45 133.762C132.168 134.938 130.654 135.834 129.005 136.392C127.356 136.95 125.609 137.157 123.875 137C104.643 134.91 86.1687 128.339 69.9374 117.813C54.8364 108.217 42.0333 95.4137 32.4374 80.3126C21.8748 64.0076 15.3015 45.4438 13.2499 26.1251C13.0938 24.3968 13.2992 22.6549 13.8531 21.0103C14.407 19.3657 15.2973 17.8544 16.4672 16.5727C17.6372 15.2911 19.0612 14.2671 20.6486 13.5659C22.2361 12.8647 23.9521 12.5018 25.6874 12.5001H44.4374C47.4706 12.4703 50.4111 13.5444 52.711 15.5222C55.0108 17.5 56.5129 20.2467 56.9374 23.2501C57.7288 29.2505 59.1965 35.1422 61.3124 40.8126C62.1533 43.0496 62.3353 45.4808 61.8369 47.8181C61.3384 50.1554 60.1803 52.3008 58.4999 54.0001L50.5624 61.9376C59.4597 77.5848 72.4153 90.5404 88.0624 99.4376L95.9999 91.5001C97.6992 89.8197 99.8447 88.6617 102.182 88.1632C104.519 87.6647 106.95 87.8467 109.187 88.6876C114.858 90.8036 120.75 92.2712 126.75 93.0626C129.786 93.4909 132.559 95.0201 134.541 97.3595C136.523 99.6988 137.576 102.685 137.5 105.75Z" stroke="#FFCC00" stroke-width="10" stroke-linecap="round" stroke-linejoin="round"/>
</svg>
