<svg width="150" height="150" viewBox="0 0 150 150" fill="none" xmlns="http://www.w3.org/2000/svg">
<path d="M25 125C21.5625 125 18.5938 123.802 16.0938 121.406C13.6979 118.906 12.5 115.938 12.5 112.5V37.5C12.5 34.0625 13.6979 31.1458 16.0938 28.75C18.5938 26.25 21.5625 25 25 25H125C128.438 25 131.354 26.25 133.75 28.75C136.25 31.1458 137.5 34.0625 137.5 37.5V112.5C137.5 115.938 136.25 118.906 133.75 121.406C131.354 123.802 128.438 125 125 125H25ZM75 81.25L125 50V37.5L75 68.75L25 37.5V50L75 81.25Z" fill="#FFCC00"/>
</svg>
