<svg width="150" height="150" viewBox="0 0 150 150" fill="none" xmlns="http://www.w3.org/2000/svg">
<path d="M0 125V107.656C0 104.115 0.885417 100.833 2.65625 97.8125C4.42708 94.7917 6.875 92.5 10 90.9375C11.4583 90.2083 12.8646 89.5312 14.2188 88.9063C15.6771 88.2813 17.1875 87.7083 18.75 87.1875V125H0ZM25 81.25C19.7917 81.25 15.3646 79.4271 11.7188 75.7813C8.07292 72.1354 6.25 67.7083 6.25 62.5C6.25 57.2917 8.07292 52.8646 11.7188 49.2187C15.3646 45.5729 19.7917 43.75 25 43.75C30.2083 43.75 34.6354 45.5729 38.2812 49.2187C41.9271 52.8646 43.75 57.2917 43.75 62.5C43.75 67.7083 41.9271 72.1354 38.2812 75.7813C34.6354 79.4271 30.2083 81.25 25 81.25ZM25 68.75C26.7708 68.75 28.2292 68.1771 29.375 67.0313C30.625 65.7813 31.25 64.2708 31.25 62.5C31.25 60.7292 30.625 59.2708 29.375 58.125C28.2292 56.875 26.7708 56.25 25 56.25C23.2292 56.25 21.7188 56.875 20.4688 58.125C19.3229 59.2708 18.75 60.7292 18.75 62.5C18.75 64.2708 19.3229 65.7813 20.4688 67.0313C21.7188 68.1771 23.2292 68.75 25 68.75ZM25 125V107.5C25 103.958 25.8854 100.729 27.6563 97.8125C29.5313 94.7917 31.9792 92.5 35 90.9375C41.4583 87.7083 48.0208 85.3125 54.6875 83.75C61.3542 82.0833 68.125 81.25 75 81.25C81.875 81.25 88.6458 82.0833 95.3125 83.75C101.979 85.3125 108.542 87.7083 115 90.9375C118.021 92.5 120.417 94.7917 122.188 97.8125C124.063 100.729 125 103.958 125 107.5V125H25ZM37.5 112.5H112.5V107.5C112.5 106.354 112.188 105.313 111.562 104.375C111.042 103.438 110.312 102.708 109.375 102.188C103.75 99.375 98.0729 97.2917 92.3438 95.9375C86.6146 94.4792 80.8333 93.75 75 93.75C69.1667 93.75 63.3854 94.4792 57.6563 95.9375C51.9271 97.2917 46.25 99.375 40.625 102.188C39.6875 102.708 38.9062 103.438 38.2812 104.375C37.7604 105.313 37.5 106.354 37.5 107.5V112.5ZM75 75C68.125 75 62.2396 72.5521 57.3438 67.6562C52.4479 62.7604 50 56.875 50 50C50 43.125 52.4479 37.2396 57.3438 32.3438C62.2396 27.4479 68.125 25 75 25C81.875 25 87.7604 27.4479 92.6563 32.3438C97.5521 37.2396 100 43.125 100 50C100 56.875 97.5521 62.7604 92.6563 67.6562C87.7604 72.5521 81.875 75 75 75ZM75 62.5C78.4375 62.5 81.3542 61.3021 83.75 58.9062C86.25 56.4063 87.5 53.4375 87.5 50C87.5 46.5625 86.25 43.6458 83.75 41.25C81.3542 38.75 78.4375 37.5 75 37.5C71.5625 37.5 68.5938 38.75 66.0938 41.25C63.6979 43.6458 62.5 46.5625 62.5 50C62.5 53.4375 63.6979 56.4063 66.0938 58.9062C68.5938 61.3021 71.5625 62.5 75 62.5ZM125 81.25C119.792 81.25 115.365 79.4271 111.719 75.7813C108.073 72.1354 106.25 67.7083 106.25 62.5C106.25 57.2917 108.073 52.8646 111.719 49.2187C115.365 45.5729 119.792 43.75 125 43.75C130.208 43.75 134.635 45.5729 138.281 49.2187C141.927 52.8646 143.75 57.2917 143.75 62.5C143.75 67.7083 141.927 72.1354 138.281 75.7813C134.635 79.4271 130.208 81.25 125 81.25ZM125 68.75C126.771 68.75 128.229 68.1771 129.375 67.0313C130.625 65.7813 131.25 64.2708 131.25 62.5C131.25 60.7292 130.625 59.2708 129.375 58.125C128.229 56.875 126.771 56.25 125 56.25C123.229 56.25 121.719 56.875 120.469 58.125C119.323 59.2708 118.75 60.7292 118.75 62.5C118.75 64.2708 119.323 65.7813 120.469 67.0313C121.719 68.1771 123.229 68.75 125 68.75ZM131.25 125V87.1875C132.813 87.7083 134.271 88.2813 135.625 88.9063C137.083 89.5312 138.542 90.2083 140 90.9375C143.125 92.5 145.573 94.7917 147.344 97.8125C149.115 100.833 150 104.115 150 107.656V125H131.25Z" fill="#FFCC00"/>
</svg>
